<?xml version="1.0" encoding="UTF-8" ?>
<!DOCTYPE svg PUBLIC "-//W3C//DTD SVG 1.1//EN" "http://www.w3.org/Graphics/SVG/1.1/DTD/svg11.dtd">
<svg width="106pt" height="46pt" viewBox="0 0 106 46" version="1.1" xmlns="http://www.w3.org/2000/svg">
<g id="#fe8e02ff">
<path fill="#fe8e02" opacity="1.00" d=" M 34.80 8.28 C 35.50 5.92 36.34 1.11 39.76 2.23 C 40.29 4.20 38.15 5.91 38.63 7.93 C 38.86 10.36 39.56 12.75 40.91 14.81 C 39.99 15.79 39.00 16.70 37.99 17.59 C 37.81 15.46 37.64 13.34 37.47 11.22 C 35.80 11.73 34.12 12.25 32.45 12.76 C 31.79 11.05 31.11 9.34 30.59 7.58 C 30.34 10.79 29.73 14.04 27.48 16.50 C 27.12 15.80 26.38 14.40 26.02 13.70 C 25.90 13.35 25.67 12.64 25.55 12.28 C 26.85 9.87 26.46 6.86 27.99 4.61 C 30.32 5.72 32.52 7.07 34.80 8.28 Z" />
<path fill="#fe8e02" opacity="1.00" d=" M 74.54 21.05 C 76.51 20.63 78.94 21.57 78.31 24.02 C 78.87 26.65 76.41 26.47 74.60 26.73 C 74.58 24.83 74.56 22.94 74.54 21.05 Z" />
<path fill="#fe8e02" opacity="1.00" d=" M 41.81 24.04 C 42.80 23.30 43.59 22.39 44.17 21.31 C 44.49 21.74 45.13 22.62 45.45 23.06 C 45.69 23.18 46.16 23.43 46.40 23.55 C 47.76 24.25 49.13 24.92 50.51 25.60 C 50.58 29.92 50.65 34.24 50.51 38.56 C 49.77 38.40 49.03 38.25 48.30 38.10 C 49.44 35.01 50.24 31.46 48.73 28.34 C 46.95 26.56 44.41 25.95 42.27 24.73 L 41.81 24.04 Z" />
<path fill="#fe8e02" opacity="1.00" d=" M 82.82 21.99 C 83.68 22.94 84.80 23.58 85.93 24.16 C 86.05 24.53 86.29 25.26 86.41 25.62 C 85.36 28.68 84.46 31.78 83.58 34.89 L 83.57 34.89 C 82.99 34.49 81.82 33.71 81.23 33.31 C 81.11 32.15 80.82 31.04 80.35 29.99 C 82.17 27.71 83.15 24.93 82.82 21.99 Z" />
</g>
<g id="#ff0000ff">
<path fill="#ff0000" opacity="1.00" d=" M 82.30 3.47 C 85.99 3.15 86.25 7.94 86.00 10.55 C 88.33 9.99 90.65 9.36 93.01 8.94 C 94.65 10.89 93.11 13.90 93.59 16.30 C 93.47 17.86 93.55 19.41 93.81 20.95 L 93.88 21.33 C 93.53 19.89 93.19 18.45 92.86 17.02 C 91.22 17.17 89.59 17.35 87.96 17.56 C 85.60 15.79 83.20 13.89 81.76 11.25 C 83.15 8.82 82.81 6.10 82.30 3.47 Z" />
<path fill="#ff0000" opacity="1.00" d=" M 41.81 24.04 C 40.64 22.61 42.05 20.52 43.82 20.81 L 44.17 21.31 C 43.59 22.39 42.80 23.30 41.81 24.04 Z" />
<path fill="#ff0000" opacity="1.00" d=" M 68.44 36.93 C 68.50 33.08 68.48 29.23 68.46 25.39 L 70.15 25.54 C 70.15 29.12 70.14 32.70 70.12 36.28 C 69.70 36.44 68.86 36.76 68.44 36.93 Z" />
<path fill="#ff0000" opacity="1.00" d=" M 63.44 26.98 L 64.14 26.70 C 63.76 30.48 63.85 34.28 63.81 38.08 L 63.81 38.31 C 61.55 38.59 59.28 38.85 57.00 38.96 C 57.73 37.64 58.38 36.29 59.05 34.94 C 58.18 34.34 57.29 33.77 56.39 33.22 C 56.79 32.72 57.60 31.72 58.00 31.22 C 60.49 30.79 62.18 29.05 63.44 26.98 Z" />
<path fill="#ff0000" opacity="1.00" d=" M 27.49 28.82 C 28.49 30.82 29.40 32.86 30.32 34.90 C 28.92 35.25 27.50 35.57 26.09 35.88 C 26.45 35.75 27.17 35.51 27.54 35.39 C 27.56 33.20 27.50 31.01 27.49 28.82 Z" />
</g>
<g id="#0374adfe">
<path fill="#0374ad" opacity="1.00" d=" M 78.26 9.78 C 78.31 7.58 78.80 5.23 81.06 4.27 C 81.17 6.60 80.72 9.07 81.76 11.25 C 83.20 13.89 85.60 15.79 87.96 17.56 C 87.62 20.28 87.02 22.96 86.41 25.62 C 86.29 25.26 86.05 24.53 85.93 24.16 C 84.80 23.58 83.68 22.94 82.82 21.99 C 82.10 17.81 77.98 16.73 74.32 17.14 C 73.75 16.13 73.21 15.11 72.67 14.08 C 72.12 12.14 72.76 10.08 72.80 8.10 C 74.62 8.66 76.45 9.18 78.26 9.78 Z" />
<path fill="#0374ad" opacity="1.00" d=" M 16.63 9.37 C 18.24 10.20 19.46 11.52 20.44 13.01 C 21.78 12.05 22.79 10.46 24.49 10.13 C 24.75 10.66 25.28 11.74 25.55 12.28 C 25.67 12.64 25.90 13.35 26.02 13.70 C 25.20 14.78 25.06 15.93 25.60 17.15 C 24.95 17.14 23.67 17.12 23.02 17.11 C 23.03 18.44 23.03 19.77 23.03 21.10 C 22.58 21.25 21.67 21.55 21.22 21.70 C 21.22 20.21 21.23 18.73 21.24 17.25 C 20.11 17.12 18.99 17.01 17.86 16.90 C 18.81 14.20 16.96 11.94 16.63 9.37 Z" />
<path fill="#0374ad" opacity="1.00" d=" M 29.36 19.22 C 29.90 19.65 30.99 20.51 31.53 20.94 C 31.59 21.75 31.72 23.38 31.78 24.20 C 31.30 24.19 30.34 24.17 29.86 24.17 C 29.69 23.72 29.34 22.82 29.17 22.37 C 29.22 21.58 29.31 20.01 29.36 19.22 Z" />
<path fill="#0374ad" opacity="1.00" d=" M 14.56 25.90 L 15.23 26.04 L 15.53 26.61 C 15.02 28.04 13.86 29.07 12.66 29.93 C 12.26 28.46 13.18 26.54 14.56 25.90 Z" />
<path fill="#0374ad" opacity="1.00" d=" M 37.85 27.17 L 38.59 27.57 C 39.26 27.90 39.92 28.23 40.59 28.58 C 39.99 29.97 40.65 31.36 41.19 32.65 C 39.36 33.03 37.55 33.46 35.73 33.86 C 35.90 32.94 36.08 32.03 36.25 31.12 C 36.82 29.82 37.38 28.50 37.85 27.17 Z" />
<path fill="#0374ad" opacity="1.00" d=" M 95.98 27.82 C 96.67 27.77 98.04 27.67 98.72 27.62 C 100.14 29.15 101.64 30.59 103.15 32.01 C 102.47 32.77 101.79 33.53 101.11 34.29 C 99.55 33.22 97.96 32.18 96.47 31.02 C 96.18 30.23 95.61 28.67 95.33 27.89 L 95.98 27.82 Z" />
</g>
<g id="#e2017efe">
<path fill="#e2017e" opacity="1.00" d=" M 42.56 5.21 C 45.83 4.98 45.70 8.68 46.33 10.90 C 48.28 10.26 50.22 9.10 52.35 9.37 C 52.76 11.93 51.52 15.07 54.01 16.87 C 54.43 14.54 54.10 10.26 57.56 10.25 C 57.00 12.36 56.42 14.53 57.46 16.59 C 58.25 16.87 59.02 17.21 59.75 17.61 C 56.67 17.16 53.56 17.12 50.45 17.08 C 50.50 19.92 50.51 22.76 50.51 25.60 C 49.13 24.92 47.76 24.25 46.40 23.55 C 47.23 23.49 48.89 23.36 49.73 23.30 C 49.04 21.33 48.97 18.71 46.82 17.66 C 44.02 16.57 40.09 16.64 38.22 19.38 C 36.69 21.73 37.28 24.62 37.85 27.17 C 37.38 28.50 36.82 29.82 36.25 31.12 C 36.11 27.16 36.11 23.20 36.00 19.24 C 36.67 18.69 37.33 18.14 37.99 17.59 C 39.00 16.70 39.99 15.79 40.91 14.81 C 42.91 12.04 43.90 8.50 42.56 5.21 Z" />
<path fill="#e2017e" opacity="1.00" d=" M 29.86 24.17 C 30.34 24.17 31.30 24.19 31.78 24.20 C 31.89 24.62 32.11 25.48 32.22 25.90 C 31.45 28.23 29.47 25.56 29.86 24.17 Z" />
<path fill="#e2017e" opacity="1.00" d=" M 63.28 25.07 L 64.07 24.94 C 64.09 25.38 64.12 26.26 64.14 26.70 L 63.44 26.98 C 63.40 26.50 63.32 25.55 63.28 25.07 Z" />
<path fill="#e2017e" opacity="1.00" d=" M 74.87 29.62 C 75.93 31.18 76.82 32.83 77.53 34.58 C 78.68 34.35 79.82 34.06 80.94 33.72 L 81.23 33.31 C 81.82 33.71 82.99 34.49 83.57 34.89 C 80.60 34.80 77.62 34.45 74.64 34.68 C 74.68 32.99 74.76 31.30 74.87 29.62 Z" />
<path fill="#e2017e" opacity="1.00" d=" M 21.17 33.19 C 21.66 32.96 22.63 32.49 23.11 32.25 C 23.29 33.61 23.18 34.95 22.78 36.25 C 22.44 36.25 21.78 36.24 21.45 36.24 C 21.38 35.48 21.24 33.95 21.17 33.19 Z" />
</g>
<g id="#00ae00ff">
<path fill="#00ae00" opacity="1.00" d=" M 56.75 6.96 C 58.08 3.73 60.95 8.48 61.79 10.02 C 63.36 8.70 64.91 7.36 66.42 5.97 C 67.50 7.61 68.40 9.42 68.97 11.31 C 69.11 12.59 69.26 13.86 69.41 15.14 C 66.88 15.00 64.35 14.84 61.81 14.70 C 62.04 15.26 62.49 16.39 62.72 16.95 C 62.76 18.25 62.85 19.55 62.99 20.85 C 62.06 19.63 61.22 18.24 59.75 17.61 C 59.02 17.21 58.25 16.87 57.46 16.59 C 59.65 13.71 58.95 9.62 56.75 6.96 Z" />
<path fill="#00ae00" opacity="1.00" d=" M 55.30 21.25 C 58.30 19.91 59.19 23.46 58.50 25.66 C 58.33 27.42 56.29 27.22 55.02 27.33 C 55.09 25.30 55.03 23.26 55.30 21.25 Z" />
<path fill="#00ae00" opacity="1.00" d=" M 15.53 26.61 C 15.74 27.01 16.16 27.81 16.37 28.21 C 16.57 30.55 16.57 32.89 16.66 35.24 C 14.31 34.59 12.65 32.85 11.17 31.01 L 12.66 29.93 C 13.86 29.07 15.02 28.04 15.53 26.61 Z" />
<path fill="#00ae00" opacity="1.00" d=" M 55.06 31.22 C 55.79 31.22 57.27 31.22 58.00 31.22 C 57.60 31.72 56.79 32.72 56.39 33.22 C 56.00 33.12 55.22 32.93 54.82 32.83 C 54.88 32.43 55.00 31.62 55.06 31.22 Z" />
</g>
<g id="#fbea01ff">
<path fill="#fbea01" opacity="1.00" d=" M 30.59 7.58 C 31.11 9.34 31.79 11.05 32.45 12.76 C 34.12 12.25 35.80 11.73 37.47 11.22 C 37.64 13.34 37.81 15.46 37.99 17.59 C 37.33 18.14 36.67 18.69 36.00 19.24 L 35.92 17.26 C 34.44 17.16 32.96 17.08 31.48 17.03 C 31.49 18.00 31.52 19.96 31.53 20.94 C 30.99 20.51 29.90 19.65 29.36 19.22 C 29.31 20.01 29.22 21.58 29.17 22.37 C 28.47 20.62 27.74 18.89 27.05 17.14 L 27.48 16.50 C 29.73 14.04 30.34 10.79 30.59 7.58 Z" />
<path fill="#fbea01" opacity="1.00" d=" M 68.97 11.31 C 69.69 10.13 69.97 6.95 72.22 8.45 C 71.70 10.36 71.33 12.42 72.67 14.08 C 73.21 15.11 73.75 16.13 74.32 17.14 C 72.92 17.13 71.51 17.13 70.11 17.13 C 70.13 19.93 70.15 22.73 70.15 25.54 L 68.46 25.39 C 68.44 22.65 68.46 19.91 68.49 17.18 C 67.00 17.14 65.51 17.11 64.03 17.08 C 63.97 19.70 63.89 22.32 64.07 24.94 L 63.28 25.07 C 63.20 23.66 63.10 22.25 62.99 20.85 C 62.85 19.55 62.76 18.25 62.72 16.95 C 62.49 16.39 62.04 15.26 61.81 14.70 C 64.35 14.84 66.88 15.00 69.41 15.14 C 69.26 13.86 69.11 12.59 68.97 11.31 Z" />
<path fill="#fbea01" opacity="1.00" d=" M 11.57 17.59 C 11.74 15.56 11.90 13.40 14.04 12.49 C 13.44 15.69 14.57 18.71 16.73 21.05 C 16.96 25.92 16.99 30.80 16.67 35.67 L 16.66 35.24 C 16.57 32.89 16.57 30.55 16.37 28.21 C 16.16 27.81 15.74 27.01 15.53 26.61 L 15.23 26.04 L 14.56 25.90 C 12.03 25.40 9.54 24.70 7.05 24.03 C 7.05 21.50 7.01 18.97 6.99 16.44 C 8.52 16.80 10.04 17.19 11.57 17.59 Z" />
<path fill="#fbea01" opacity="1.00" d=" M 21.22 21.70 C 21.67 21.55 22.58 21.25 23.03 21.10 C 23.03 24.81 22.96 28.53 23.11 32.25 C 22.63 32.49 21.66 32.96 21.17 33.19 C 21.30 29.36 21.23 25.53 21.22 21.70 Z" />
<path fill="#fbea01" opacity="1.00" d=" M 88.96 31.93 C 89.14 30.71 89.33 29.49 89.54 28.26 C 90.02 28.46 90.99 28.86 91.47 29.06 C 91.69 29.62 92.14 30.75 92.37 31.31 C 91.25 31.62 90.11 31.83 88.96 31.93 Z" />
<path fill="#fbea01" opacity="1.00" d=" M 96.47 31.02 C 97.96 32.18 99.55 33.22 101.11 34.29 C 99.54 35.20 98.16 36.75 96.25 36.86 C 96.39 36.60 96.66 36.09 96.80 35.84 C 97.79 34.30 96.82 32.60 96.47 31.02 Z" />
<path fill="#fbea01" opacity="1.00" d=" M 87.37 36.10 C 89.11 35.77 90.88 35.58 92.63 35.29 C 92.96 35.87 93.61 37.02 93.94 37.60 C 91.72 37.24 89.51 36.80 87.37 36.10 Z" />
</g>
<g id="#ff6400ff">
<path fill="#ff6400" opacity="1.00" d=" M 25.60 17.15 C 25.06 15.93 25.20 14.78 26.02 13.70 C 26.38 14.40 27.12 15.80 27.48 16.50 L 27.05 17.14 C 26.68 17.14 25.96 17.14 25.60 17.15 Z" />
<path fill="#ff6400" opacity="1.00" d=" M 96.96 14.13 C 99.33 15.08 98.71 17.73 98.33 19.64 C 99.94 19.70 101.56 19.76 103.17 19.83 C 102.89 22.34 102.42 24.83 101.81 27.29 C 100.01 27.35 98.07 26.85 96.41 27.76 C 95.19 25.78 94.34 23.61 93.88 21.33 L 93.81 20.95 C 95.66 19.09 97.14 16.89 96.96 14.13 Z" />
<path fill="#ff6400" opacity="1.00" d=" M 89.54 28.26 C 89.17 27.34 89.84 24.34 91.20 25.47 C 91.81 26.65 91.90 27.85 91.47 29.06 C 90.99 28.86 90.02 28.46 89.54 28.26 Z" />
<path fill="#ff6400" opacity="1.00" d=" M 41.19 32.65 C 40.65 31.36 39.99 29.97 40.59 28.58 C 42.07 29.62 44.75 29.95 45.12 32.09 C 45.84 33.74 43.87 34.80 43.08 35.93 C 42.42 34.85 41.79 33.76 41.19 32.65 Z" />
<path fill="#ff6400" opacity="1.00" d=" M 54.82 32.83 C 55.22 32.93 56.00 33.12 56.39 33.22 C 57.29 33.77 58.18 34.34 59.05 34.94 C 58.38 36.29 57.73 37.64 57.00 38.96 C 56.50 39.00 55.50 39.07 55.00 39.11 C 54.96 37.02 54.91 34.92 54.82 32.83 Z" />
</g>
<g id="#ffffffff">
<path fill="#ffffff" opacity="1.00" d=" M 16.80 17.32 C 17.06 17.21 17.59 17.01 17.86 16.90 C 18.99 17.01 20.11 17.12 21.24 17.25 C 21.23 18.73 21.22 20.21 21.22 21.70 C 21.23 25.53 21.30 29.36 21.17 33.19 C 21.24 33.95 21.38 35.48 21.45 36.24 C 19.85 36.11 18.26 35.88 16.67 35.67 C 16.99 30.80 16.96 25.92 16.73 21.05 C 16.74 19.80 16.78 18.56 16.80 17.32 Z" />
<path fill="#ffffff" opacity="1.00" d=" M 23.02 17.11 C 23.67 17.12 24.95 17.14 25.60 17.15 C 25.96 17.14 26.68 17.14 27.05 17.14 C 27.74 18.89 28.47 20.62 29.17 22.37 C 29.34 22.82 29.69 23.72 29.86 24.17 C 29.47 25.56 31.45 28.23 32.22 25.90 C 32.11 25.48 31.89 24.62 31.78 24.20 C 31.72 23.38 31.59 21.75 31.53 20.94 C 31.52 19.96 31.49 18.00 31.48 17.03 C 32.96 17.08 34.44 17.16 35.92 17.26 L 36.00 19.24 C 36.11 23.20 36.11 27.16 36.25 31.12 C 36.08 32.03 35.90 32.94 35.73 33.86 C 37.55 33.46 39.36 33.03 41.19 32.65 C 41.79 33.76 42.42 34.85 43.08 35.93 C 43.87 34.80 45.84 33.74 45.12 32.09 C 44.75 29.95 42.07 29.62 40.59 28.58 C 39.92 28.23 39.26 27.90 38.59 27.57 L 37.85 27.17 C 37.28 24.62 36.69 21.73 38.22 19.38 C 40.09 16.64 44.02 16.57 46.82 17.66 C 48.97 18.71 49.04 21.33 49.73 23.30 C 48.89 23.36 47.23 23.49 46.40 23.55 C 46.16 23.43 45.69 23.18 45.45 23.06 C 45.13 22.62 44.49 21.74 44.17 21.31 L 43.82 20.81 C 42.05 20.52 40.64 22.61 41.81 24.04 L 42.27 24.73 C 44.41 25.95 46.95 26.56 48.73 28.34 C 50.24 31.46 49.44 35.01 48.30 38.10 C 44.42 36.92 40.55 35.71 36.71 34.42 C 34.57 34.44 32.44 34.61 30.32 34.90 C 29.40 32.86 28.49 30.82 27.49 28.82 C 27.50 31.01 27.56 33.20 27.54 35.39 C 27.17 35.51 26.45 35.75 26.09 35.88 C 25.26 35.97 23.60 36.16 22.78 36.25 C 23.18 34.95 23.29 33.61 23.11 32.25 C 22.96 28.53 23.03 24.81 23.03 21.10 C 23.03 19.77 23.03 18.44 23.02 17.11 Z" />
<path fill="#ffffff" opacity="1.00" d=" M 64.03 17.08 C 65.51 17.11 67.00 17.14 68.49 17.18 C 68.46 19.91 68.44 22.65 68.46 25.39 C 68.48 29.23 68.50 33.08 68.44 36.93 C 66.90 37.33 65.36 37.72 63.81 38.08 C 63.85 34.28 63.76 30.48 64.14 26.70 C 64.12 26.26 64.09 25.38 64.07 24.94 C 63.89 22.32 63.97 19.70 64.03 17.08 Z" />
<path fill="#ffffff" opacity="1.00" d=" M 70.11 17.13 C 71.51 17.13 72.92 17.13 74.32 17.14 C 77.98 16.73 82.10 17.81 82.82 21.99 C 83.15 24.93 82.17 27.71 80.35 29.99 C 80.82 31.04 81.11 32.15 81.23 33.31 L 80.94 33.72 C 79.82 34.06 78.68 34.35 77.53 34.58 C 76.82 32.83 75.93 31.18 74.87 29.62 C 74.76 31.30 74.68 32.99 74.64 34.68 C 73.15 35.27 71.63 35.77 70.12 36.28 C 70.14 32.70 70.15 29.12 70.15 25.54 C 70.15 22.73 70.13 19.93 70.11 17.13 M 74.54 21.05 C 74.56 22.94 74.58 24.83 74.60 26.73 C 76.41 26.47 78.87 26.65 78.31 24.02 C 78.94 21.57 76.51 20.63 74.54 21.05 Z" />
<path fill="#ffffff" opacity="1.00" d=" M 50.45 17.08 C 53.56 17.12 56.67 17.16 59.75 17.61 C 61.22 18.24 62.06 19.63 62.99 20.85 C 63.10 22.25 63.20 23.66 63.28 25.07 C 63.32 25.55 63.40 26.50 63.44 26.98 C 62.18 29.05 60.49 30.79 58.00 31.22 C 57.27 31.22 55.79 31.22 55.06 31.22 C 55.00 31.62 54.88 32.43 54.82 32.83 C 54.91 34.92 54.96 37.02 55.00 39.11 C 53.50 38.90 52.00 38.74 50.51 38.56 C 50.65 34.24 50.58 29.92 50.51 25.60 C 50.51 22.76 50.50 19.92 50.45 17.08 M 55.30 21.25 C 55.03 23.26 55.09 25.30 55.02 27.33 C 56.29 27.22 58.33 27.42 58.50 25.66 C 59.19 23.46 58.30 19.91 55.30 21.25 Z" />
<path fill="#ffffff" opacity="1.00" d=" M 87.96 17.56 C 89.59 17.35 91.22 17.17 92.86 17.02 C 93.19 18.45 93.53 19.89 93.88 21.33 C 94.34 23.61 95.19 25.78 96.41 27.76 L 95.98 27.82 L 95.33 27.89 C 95.61 28.67 96.18 30.23 96.47 31.02 C 96.82 32.60 97.79 34.30 96.80 35.84 C 96.66 36.09 96.39 36.60 96.25 36.86 C 95.68 37.04 94.52 37.41 93.94 37.60 C 93.61 37.02 92.96 35.87 92.63 35.29 C 90.88 35.58 89.11 35.77 87.37 36.10 L 87.01 36.16 C 85.85 35.79 84.68 35.43 83.51 35.10 L 83.58 34.89 C 84.46 31.78 85.36 28.68 86.41 25.62 C 87.02 22.96 87.62 20.28 87.96 17.56 M 89.54 28.26 C 89.33 29.49 89.14 30.71 88.96 31.93 C 90.11 31.83 91.25 31.62 92.37 31.31 C 92.14 30.75 91.69 29.62 91.47 29.06 C 91.90 27.85 91.81 26.65 91.20 25.47 C 89.84 24.34 89.17 27.34 89.54 28.26 Z" />
</g>
</svg>
